<?xml version="1.0" encoding="utf-8"?>
<!-- Generator: Adobe Illustrator 16.0.1, SVG Export Plug-In . SVG Version: 6.00 Build 0)  -->
<!DOCTYPE svg PUBLIC "-//W3C//DTD SVG 1.1//EN" "http://www.w3.org/Graphics/SVG/1.1/DTD/svg11.dtd">
<svg version="1.1" id="Layer_3" xmlns="http://www.w3.org/2000/svg" xmlns:xlink="http://www.w3.org/1999/xlink" x="0px" y="0px"
	 width="386px" height="196px" viewBox="0 0 386 196" enable-background="new 0 0 386 196" xml:space="preserve">
<g>
	<path fill="#1F3C47" d="M172.402,7.24c-1.945-2.5-7.084-1.281-11.777,0.999c0,0-51.201,26.226-54.918,27.379
		c-3.625,1.125-5.375-1.5-6.375-2.5s-2.875-1.544-6.375,0.956s-16.666,9.166-31.166,24s-24.666,24.833-24.833,26
		s0.333,5.166,1.667,8.5c1.332,3.334,0.5,7-0.834,9.5s-5.466,8.983-8,12.668c-1.833,2.665-1.333,4.664,0,4.831
		c1.334,0.167,0.834,1-0.166,3.5s-6.498,7.264-8.66,13.917c-2.166,6.665-10.933,41.81-12.84,49.583
		c-0.691,2.818,7.905,5.604,8.833,1.499c1.751-7.75,9.249-38.078,10.499-43.328s5.75-13.75,7.5-15.75s4.25-2,5.125-1
		s1.375,3.5,3.25,3.375s5.875-5.375,8.375-6.125s3.375-1.125,5.625-1.125s20.83,1.104,23.626-0.713s92.166-50.834,93.833-53.334
		s1.667-12.998,1.667-34.331S174.346,9.74,172.402,7.24z M162.957,52.243c-0.25,10.5-5.174,14.97-5.674,15.72
		s-24.75,15.75-32.5,20.25s-10.326,3.28-15.326,0.78s-8.41-12.37-6.277-22.255c0.897-4.16,1.613-7.248,5.277-10.725
		c7.562-7.177,20.565-13.308,23.75-15.021c4.178-2.248,22.75-11.5,26.25-12.25S163.207,41.743,162.957,52.243z"/>
	<text transform="matrix(1 0 0 1 131.79 151.0464)" fill="#1F3C47" font-family="'VarelaRound-Regular'" font-size="57">Datatank</text>
	<text transform="matrix(1 0 0 1 197.457 90.0469)" fill="#1F3C47" font-family="'VarelaRound-Regular'" font-size="57">The</text>
</g>
</svg>
